<svg width="32" height="32" viewBox="0 0 237 210" fill="none" xmlns="http://www.w3.org/2000/svg">
<g clip-path="url(#clip0_2_16)">
<path d="M73.44 37.2L19.44 125.76H123.84L73.44 37.2Z" fill="#C6FBFF" stroke="#C6FBFF" stroke-width="3" stroke-miterlimit="10"/>
<path d="M96.2 1L190.2 166.68L212.41 205.8L233.24 170.8L139.08 1H96.2Z" fill="#C6FBFF" stroke="#C6FBFF" stroke-width="2" stroke-miterlimit="10"/>
<path d="M138.13 1C142.141 1.37252 146.002 2.71437 149.38 4.91C152.843 7.31046 155.668 10.52 157.61 14.26C162.29 22.39 167.84 32.12 174 43.44L226.92 136.67C222.095 140.659 218.215 145.67 215.56 151.34" fill="#C6FBFF"/>
<path d="M138.13 1C142.141 1.37252 146.002 2.71437 149.38 4.91C152.843 7.31046 155.668 10.52 157.61 14.26C162.29 22.39 167.84 32.12 174 43.44L226.92 136.67C222.095 140.659 218.215 145.67 215.56 151.34" stroke="#C6FBFF" stroke-width="2" stroke-miterlimit="10"/>
<path d="M233.31 170.76C235.208 166.591 236.003 162.005 235.62 157.44C235.3 153.96 234.32 151.44 232.96 148.03C230.886 142.852 228.229 137.927 225.04 133.35" fill="#C6FBFF"/>
<path d="M233.31 170.76C235.208 166.591 236.003 162.005 235.62 157.44C235.3 153.96 234.32 151.44 232.96 148.03C230.886 142.852 228.229 137.927 225.04 133.35" stroke="#C6FBFF" stroke-width="2" stroke-miterlimit="10"/>
<path d="M216.44 144.12L225.04 135.42L233.31 165.08L230.38 169.52" fill="#C6FBFF"/>
<path d="M216.44 144.12L225.04 135.42L233.31 165.08L230.38 169.52" stroke="#C6FBFF" stroke-width="2" stroke-miterlimit="10"/>
<path d="M21.12 197.12L1.67999 161.29H146.4L174.72 208.81H42.05C37.8534 208.811 33.7264 207.737 30.0625 205.691C26.3986 203.645 23.3199 200.694 21.12 197.12Z" fill="#C6FBFF" stroke="#C6FBFF" stroke-width="2" stroke-miterlimit="10"/>
</g>
<defs>
<clipPath id="clip0_2_16">
<rect width="236.73" height="209.8" fill="white"/>
</clipPath>
</defs>
</svg>
