<svg width="718" height="216" viewBox="0 0 718 216" fill="none" xmlns="http://www.w3.org/2000/svg">
<path d="M678.1 0H39.06C17.4878 0 0 17.4878 0 39.06V176.22C0 197.792 17.4878 215.28 39.06 215.28H678.1C699.672 215.28 717.16 197.792 717.16 176.22V39.06C717.16 17.4878 699.672 0 678.1 0Z" fill="black"/>
<path d="M678.1 93.96H39.06C17.4878 93.96 0 111.448 0 133.02V176.22C0 197.792 17.4878 215.28 39.06 215.28H678.1C699.672 215.28 717.16 197.792 717.16 176.22V133.02C717.16 111.448 699.672 93.96 678.1 93.96Z" fill="#F29100"/>
<path d="M678.1 0H39.06C17.4878 0 0 17.4878 0 39.06V133.02C0 154.592 17.4878 172.08 39.06 172.08H678.1C699.672 172.08 717.16 154.592 717.16 133.02V39.06C717.16 17.4878 699.672 0 678.1 0Z" fill="#FDF0B2"/>
<path d="M678.1 8.64001H39.06C17.4878 8.64001 0 26.1278 0 47.7V159.66C0 181.232 17.4878 198.72 39.06 198.72H678.1C699.672 198.72 717.16 181.232 717.16 159.66V47.7C717.16 26.1278 699.672 8.64001 678.1 8.64001Z" fill="#FFC700"/>
<path d="M659.22 9H59.06C37.4878 9 20 26.4878 20 48.06V144.9C20 166.472 37.4878 183.96 59.06 183.96H659.22C680.792 183.96 698.28 166.472 698.28 144.9V48.06C698.28 26.4878 680.792 9 659.22 9Z" fill="url(#paint0_linear_1_5)"/>
<path d="M641.38 30.24H75.78C66.1371 30.24 58.32 38.0571 58.32 47.7C58.32 57.3429 66.1371 65.16 75.78 65.16H641.38C651.023 65.16 658.84 57.3429 658.84 47.7C658.84 38.0571 651.023 30.24 641.38 30.24Z" fill="#FCCC00"/>
<defs>
<linearGradient id="paint0_linear_1_5" x1="359.14" y1="178.69" x2="359.14" y2="-4.7" gradientUnits="userSpaceOnUse">
<stop offset="0.04" stop-color="#FFC700"/>
<stop offset="0.34" stop-color="#FDBF00"/>
<stop offset="0.94" stop-color="#FAB200"/>
</linearGradient>
</defs>
</svg>
