<svg width="90" height="90" viewBox="0 0 90 90" fill="none" xmlns="http://www.w3.org/2000/svg">
<path fill-rule="evenodd" clip-rule="evenodd" d="M31.81 8C34.2203 8 36.5319 8.95748 38.2362 10.6618C39.9405 12.3661 40.898 14.6777 40.898 17.088V79.213C40.898 79.7104 40.8 80.2029 40.6096 80.6625C40.4193 81.122 40.1402 81.5395 39.7885 81.8912C39.4367 82.2428 39.0191 82.5218 38.5595 82.712C38.1 82.9023 37.6074 83.0001 37.11 83H28.78C27.7756 83 26.8124 82.601 26.1022 81.8908C25.392 81.1806 24.993 80.2174 24.993 79.213V27.537C24.993 26.5326 24.594 25.5694 23.8838 24.8592C23.1736 24.149 22.2104 23.75 21.206 23.75H19.691C18.6868 23.7503 17.7238 24.1494 17.0138 24.8595C16.3038 25.5697 15.905 26.5328 15.905 27.537V79.213C15.905 79.7103 15.807 80.2028 15.6167 80.6622C15.4264 81.1217 15.1475 81.5392 14.7958 81.8908C14.4442 82.2425 14.0267 82.5214 13.5672 82.7117C13.1078 82.902 12.6153 83 12.118 83H3.787C2.78263 83 1.81939 82.601 1.10919 81.8908C0.398986 81.1806 0 80.2174 0 79.213L0 11.787C0 10.7826 0.398986 9.81939 1.10919 9.10919C1.81939 8.39899 2.78263 8 3.787 8H31.81ZM80.912 8C82.1055 8 83.2872 8.23507 84.3898 8.69178C85.4924 9.1485 86.4943 9.81792 87.3382 10.6618C88.1821 11.5057 88.8515 12.5076 89.3082 13.6102C89.7649 14.7128 90 15.8945 90 17.088V32.721C89.9997 33.5244 89.6804 34.2949 89.1122 34.8629C88.544 35.4309 87.7734 35.75 86.97 35.75H76.368C75.5646 35.7497 74.7941 35.4304 74.2261 34.8622C73.6581 34.294 73.339 33.5234 73.339 32.72V26.022C73.339 25.7236 73.2802 25.4282 73.1661 25.1525C73.0519 24.8769 72.8845 24.6264 72.6735 24.4155C72.4626 24.2045 72.2121 24.0371 71.9365 23.9229C71.6608 23.8088 71.3654 23.75 71.067 23.75H67.28C66.6774 23.75 66.0995 23.9894 65.6735 24.4155C65.2474 24.8415 65.008 25.4194 65.008 26.022V64.985C65.008 65.822 65.686 66.5 66.523 66.5H72.582C73.418 66.5 74.096 65.822 74.096 64.985V57.5H72.582C71.7784 57.5 71.0077 57.1808 70.4395 56.6125C69.8712 56.0443 69.552 55.2736 69.552 54.47V44.78C69.552 43.9764 69.8712 43.2057 70.4395 42.6375C71.0077 42.0692 71.7784 41.75 72.582 41.75H86.972C87.7753 41.7505 88.5454 42.07 89.1132 42.6382C89.681 43.2063 90 43.9767 90 44.78V73.912C90 76.3223 89.0425 78.6339 87.3382 80.3382C85.6339 82.0425 83.3223 83 80.912 83H58.19C56.9965 83.0001 55.8146 82.7652 54.7119 82.3085C53.6091 81.8518 52.6072 81.1825 51.7632 80.3385C50.9192 79.4946 50.2497 78.4927 49.7929 77.3901C49.3361 76.2874 49.101 75.1055 49.101 73.912V17.088C49.101 15.8944 49.3361 14.7124 49.793 13.6097C50.2498 12.507 50.9194 11.505 51.7635 10.6611C52.6076 9.81718 53.6097 9.14781 54.7126 8.69121C55.8154 8.23461 56.9974 7.99974 58.191 8H80.912Z" fill="#C6FBFF"/>
</svg>
